<svg width="882" height="97" viewBox="0 0 882 97" fill="none" xmlns="http://www.w3.org/2000/svg">
<path d="M4.09686 35.6934V10.6621H14.3273L15.1535 7.11133H1.14374V2.43555H35.4562V7.11133H20.3918C20.0637 8.36523 19.7297 9.54883 19.3898 10.6621H32.5031V35.6582H27.4406V33.584H9.15936V35.6934H4.09686ZM27.4406 15.2324H9.15936V19.9082H27.4406V15.2324ZM9.15936 29.0137H27.4406V24.3027H9.15936V29.0137ZM53.7094 11.2598L58.3851 10.627C58.1976 7.39258 58.0453 4.19336 57.9281 1.0293H62.9203L63.184 9.95898L72.6234 8.6582L73.0101 12.7363L63.4301 14.1426C63.6176 16.5684 63.8695 18.7598 64.1859 20.7168C65.7562 18.9238 67.3969 16.7324 69.1078 14.1426L73.0453 16.7793C70.5609 20.1074 67.9652 23.0312 65.2582 25.5508C65.7973 27.3672 66.4359 28.8379 67.1742 29.9629C67.4437 30.2559 67.6898 30.4023 67.9125 30.4023C68.182 30.4023 68.4047 30.1855 68.5805 29.752C68.9555 28.1348 69.1898 26.1543 69.2836 23.8105C70.0336 24.209 71.5336 24.8184 73.7836 25.6387C73.0336 30.4082 72.2543 33.2969 71.4457 34.3047C70.6371 35.3242 69.4945 35.834 68.018 35.834C65.1469 35.834 62.9086 33.5137 61.3031 28.873C59.7562 30.0566 58.1742 31.1113 56.557 32.0371C56.1117 31.416 55.5609 30.7012 54.9047 29.8926V34.498H50.4047V32.7402H44.4281V34.8496H39.9281V17.0957H44.2523V1.09961H49.0336V6.54883H55.6781V10.627H49.0336V17.0957H54.9047V27.5898C56.7797 26.5703 58.4555 25.4746 59.932 24.3027C59.4164 21.8887 58.9945 18.7363 58.6664 14.8457L54.3422 15.4785L53.7094 11.2598ZM50.4047 21.1035H44.4281V28.7324H50.4047V21.1035ZM66.4008 1.38086C68.0648 2.59961 69.8109 4.04102 71.639 5.70508L68.5805 8.76367C67.1039 7.19336 65.4515 5.66992 63.6234 4.19336L66.4008 1.38086ZM92.6344 35.2012C92.2125 33.0918 91.7906 31.2988 91.3687 29.8223C94.2867 29.9395 96.2965 29.998 97.398 29.998C98.1832 29.998 98.7808 29.9336 99.191 29.8047C99.6129 29.6641 99.9586 29.4473 100.228 29.1543C100.498 28.8496 100.679 28.5098 100.773 28.1348C100.867 27.7598 100.966 26.4707 101.072 24.2676C101.189 22.0645 101.248 20.5527 101.248 19.7324H90.1383C89.4234 26.4473 86.1187 31.8496 80.2242 35.9395C79.6383 35.0957 78.3726 33.5488 76.4273 31.2988C79.0172 29.6113 80.9801 27.707 82.316 25.5859C83.6637 23.4648 84.4547 21.3848 84.689 19.3457C84.9234 17.2949 85.0699 14.377 85.1285 10.5918H77.2008V5.95117H91.8082L90.4195 2.40039L96.0094 1.09961C96.7828 3.0332 97.3687 4.65039 97.7672 5.95117H110.634V10.5918H90.4898C90.4664 12.0449 90.4254 13.5449 90.3668 15.0918H106.802C106.697 18.1738 106.556 21.3555 106.38 24.6367C106.205 27.9062 106.035 29.9395 105.871 30.7363C105.718 31.5332 105.384 32.2773 104.869 32.9688C104.365 33.6719 103.755 34.1699 103.041 34.4629C102.326 34.7676 101.212 34.9668 99.7008 35.0605C98.2008 35.1543 95.8453 35.2012 92.6344 35.2012ZM131.7 27.8887L134.759 25.8848H132.509C131.149 28.5332 129.509 30.9941 127.587 33.2676C127.071 32.752 126.391 32.1074 125.548 31.334C124.47 32.0137 123.134 32.9043 121.54 34.0059C120.509 34.6387 119.747 35.248 119.255 35.834L116.794 32.3535C117.497 31.4629 117.837 30.3848 117.813 29.1191V23.002H114.262V19.0293H117.813V15.7949H116.723C116.302 16.4746 115.868 17.1191 115.423 17.7285C115.001 15.4551 114.579 13.5801 114.157 12.1035C115.985 8.98633 117.356 5.27148 118.27 0.958984L122.595 1.87305C122.266 3.06836 121.915 4.2168 121.54 5.31836H126.356V9.25586H120.063C119.712 10.1465 119.325 11.002 118.903 11.8223H125.266V15.7949H122.278V19.0293H125.899V23.002H122.278V28.4863C123.309 27.877 124.329 27.2441 125.337 26.5879C125.36 27.127 125.384 27.7012 125.407 28.3105C127.446 25.7559 129.075 22.873 130.294 19.6621H126.427V15.7246H131.524C131.688 15.0449 131.852 14.3184 132.016 13.5449H127.727V9.74805H132.649C132.743 9.06836 132.837 8.35352 132.93 7.60352H127.165V3.66602H133.247C133.317 2.77539 133.376 1.84961 133.423 0.888672L138.098 1.16992C138.028 2.03711 137.958 2.86914 137.887 3.66602H147.977V7.60352H137.501C137.407 8.33008 137.313 9.04492 137.22 9.74805H146.817V13.5449H136.622C136.458 14.2949 136.305 15.0215 136.165 15.7246H148.856V19.6621H145.411V22.0176H148.716V25.8848H145.411V31.0879C145.411 33.9238 144.028 35.4707 141.262 35.7285C140.114 35.7988 138.649 35.834 136.868 35.834C136.727 34.4277 136.458 32.9863 136.059 31.5098L134.864 32.2832C133.716 30.5488 132.661 29.084 131.7 27.8887ZM138.696 29.752L136.13 31.4746C137.208 31.5449 138.134 31.5918 138.907 31.6152C140.243 31.6855 140.911 31.0527 140.911 29.7168V25.8848H135.602C136.891 27.4316 137.923 28.7207 138.696 29.752ZM134.266 22.0176H140.911V19.6621H135.11C134.852 20.459 134.571 21.2441 134.266 22.0176ZM166.617 1.41602L166.02 2.18945C168.855 4.69727 171.539 7.3457 174.07 10.1348L170.344 13.4746V15.9707H156.492V13.8965C155.625 14.6699 154.723 15.4199 153.785 16.1465C153.012 13.9668 152.344 12.2441 151.781 10.9785C155.273 8.40039 158.344 5.21289 160.992 1.41602H166.617ZM180.926 1.5918H185.496V29.5762C185.496 33.4434 183.914 35.4121 180.75 35.4824C179.391 35.5293 177.785 35.5527 175.934 35.5527C175.676 33.9121 175.324 32.2363 174.879 30.5254C176.238 30.5957 177.516 30.6309 178.711 30.6309C180.187 30.6309 180.926 29.8457 180.926 28.2754V1.5918ZM168.445 17.6934L172.805 19.0645C171.773 21.9941 170.613 25.1816 169.324 28.627C170.824 28.4629 172.324 28.2871 173.824 28.0996C173.754 29.4121 173.672 30.9707 173.578 32.7754C166.805 33.4785 160.16 34.1934 153.645 34.9199L152.906 30.1387C157.008 29.834 161.027 29.4941 164.965 29.1191C166.207 25.6504 167.367 21.8418 168.445 17.6934ZM178.465 26.7285H174.176V4.86133H178.465V26.7285ZM157.09 18.4316C158.238 21.1973 159.398 24.2559 160.57 27.6074L156.703 29.1895C155.578 25.6035 154.441 22.5098 153.293 19.9082L157.09 18.4316ZM163.875 17.0254C164.555 20.0488 165.129 23.1777 165.598 26.4121L161.73 27.1504C161.285 23.752 160.828 20.6348 160.359 17.7988L163.875 17.0254ZM163.523 5.81055C162.141 7.89648 160.488 9.92383 158.566 11.8926H168.973C167.191 9.7832 165.375 7.75586 163.523 5.81055ZM200.972 26.3242L198.124 35.8516H193.976L195.997 26.3242H200.972ZM242.85 25.9199H246.928V22.2637H237.049V18.6074H239.686C238.912 18.1152 237.952 17.541 236.803 16.8848C238.233 15.1738 239.627 13.3105 240.987 11.2949C240.377 10.2402 239.745 9.23242 239.088 8.27148L241.795 6.58398C240.811 6.63086 239.815 6.67773 238.807 6.72461C238.385 5.22461 237.998 3.92383 237.647 2.82227C243.764 2.72852 251.17 2.40039 259.866 1.83789L261.307 5.59961C259.69 5.66992 258.037 5.75195 256.35 5.8457L259.866 7.32227C258.741 9.29102 257.733 10.9199 256.842 12.209L253.08 10.2051C253.854 9.05664 254.733 7.60352 255.717 5.8457C253.866 5.93945 251.944 6.0332 249.952 6.12695C250.702 7.36914 251.37 8.61133 251.955 9.85352L247.807 11.541C247.127 9.94727 246.436 8.50586 245.733 7.2168L248.088 6.23242C246.284 6.32617 244.444 6.41992 242.569 6.51367C243.366 7.49805 244.116 8.54102 244.819 9.64258L242.112 11.2949H245.803C245.592 11.6465 245.37 11.998 245.135 12.3496H259.866V15.7949H251.815V18.6074H261.87V22.2637H251.815V25.9199H255.893V23.3184H260.287V30.209H255.893V29.3652H238.491V23.3184H242.85V25.9199ZM241.971 31.3691C247.596 31.5801 254.487 31.5918 262.643 31.4043C262.174 32.4121 261.635 33.7246 261.026 35.3418C254.135 35.3418 247.854 35.2949 242.182 35.2012C238.479 35.2012 235.584 34.1699 233.498 32.1074C232.186 33.4434 230.909 34.7559 229.666 36.0449L227.662 31.1582C228.647 30.3613 229.76 29.5059 231.002 28.5918V18.0801H227.873V13.4395H235.397V29.0488C236.78 30.5957 238.971 31.3691 241.971 31.3691ZM232.233 1.09961C234.248 3.53711 235.877 5.68164 237.12 7.5332C235.385 8.63477 234.002 9.54883 232.971 10.2754C231.401 7.76758 229.889 5.54102 228.436 3.5957L232.233 1.09961ZM240.67 18.6074H246.928V15.7949H242.815C242.135 16.7324 241.42 17.6699 240.67 18.6074ZM265.498 6.83008H269.4V1.09961H273.865V6.83008H277.24V11.1895H273.865V16.6562L277.275 15.7246C277.252 17.5762 277.263 19.1465 277.31 20.4355C276.9 20.541 275.752 20.875 273.865 21.4375V31.1582C273.865 32.459 273.607 33.4551 273.091 34.1465C272.587 34.8379 271.855 35.2363 270.894 35.3418C269.945 35.4473 268.533 35.5176 266.658 35.5527C266.423 34.1465 266.13 32.623 265.779 30.9824C267.209 31.0176 268.17 31.0117 268.662 30.9648C269.154 30.9062 269.4 30.4902 269.4 29.7168V22.7734L265.779 23.8457L265.392 18.6777C266.693 18.4082 268.029 18.1094 269.4 17.7812V11.1895H265.498V6.83008ZM295.873 6.93555C297.279 7.68555 298.732 8.2832 300.232 8.72852C299.646 11.8926 298.861 13.7676 297.877 14.3535C296.892 14.9395 295.685 15.2324 294.255 15.2324H283.498C280.076 15.2324 278.365 13.4629 278.365 9.92383V1.24023H283.041V4.9668C288.162 4.28711 293.212 3.26758 298.193 1.9082L299.81 6.0918C294.783 7.20508 289.193 8.11914 283.041 8.83398V9.15039C283.041 10.4863 283.826 11.1543 285.396 11.1543H293.166C294.326 11.1543 295.035 10.8086 295.293 10.1172C295.55 9.42578 295.744 8.36523 295.873 6.93555ZM278.752 35.6934V17.3418H298.791V35.623H294.15V33.8652H283.392V35.6934H278.752ZM294.15 21.3496H283.392V23.6699H294.15V21.3496ZM283.392 29.8574H294.15V27.5371H283.392V29.8574ZM320.77 17.2715H325.411C324.86 18.0098 324.262 18.7715 323.618 19.5566H333.585C331.37 18.4316 329.255 17.3887 327.239 16.4277L328.751 14.1426H320.682L322.141 15.8652C319.821 17.4355 316.821 19.2754 313.141 21.3848C312.345 20.002 311.606 18.8184 310.927 17.834C313.165 16.8965 315.497 15.666 317.923 14.1426H312.403V10.3105H322.528V8.23633H314.196V4.54492H322.528V1.20508H327.309V4.54492H335.641V8.23633H327.309V10.3105H337.399V14.1426H331.247C334.095 15.4082 336.415 16.5215 338.208 17.4824L336.309 20.9629L334.2 19.873V23.2832C332.981 25.4863 331.37 27.4258 329.366 29.1016C331.956 30.1328 334.915 30.8535 338.243 31.2637C337.61 32.3184 336.825 33.8184 335.887 35.7637C331.739 34.9668 328.136 33.707 325.077 31.9844C321.69 33.8242 317.583 35.1895 312.755 36.0801C312.075 34.7207 311.325 33.3496 310.505 31.9668C314.512 31.2402 317.958 30.2793 320.841 29.084C319.704 28.0996 318.673 27.0273 317.747 25.8672C316.645 26.9453 315.473 28.0527 314.231 29.1895C313.036 27.8535 312.028 26.8457 311.208 26.166C314.747 23.377 317.934 20.4121 320.77 17.2715ZM325.095 26.9043C326.805 25.8145 328.2 24.5957 329.278 23.248H320.893C322.089 24.6426 323.489 25.8613 325.095 26.9043ZM306.919 2.33008C308.817 4.97852 310.575 7.55664 312.192 10.0645L307.903 12.7715C306.216 9.70117 304.634 7.00586 303.157 4.68555L306.919 2.33008ZM306.989 18.2559C307.903 18.7012 309.403 19.3574 311.489 20.2246L307.341 35.1309C306.591 34.709 305.149 34.0645 303.016 33.1973C304.516 28.2051 305.841 23.2246 306.989 18.2559ZM345 2.99805H372.281V7.84961H345V2.99805ZM341.766 13.8965H375.516V18.748H359.186C357.451 21.2676 354.715 24.584 350.977 28.6973C355.91 28.6621 360.662 28.5215 365.232 28.2754L360.469 22.4043L364.688 19.8379C369.305 25.041 372.902 29.377 375.48 32.8457L370.875 35.7988C370.359 35.0254 369.697 34.0879 368.889 32.9863C355.084 33.4434 347.156 33.9355 345.105 34.4629L342.855 29.7871C346.5 26.7988 349.734 23.1191 352.559 18.748H341.766V13.8965ZM382.167 14.9512H393.804V10.1348H379.355V5.63477H393.804V1.31055H398.726V5.63477H413.175V10.1348H398.726V14.9512H410.362V19.3809H382.167V14.9512ZM396.3 19.6621C398.292 21.4902 400.038 23.2246 401.538 24.8652L397.882 27.959C396.359 26.0371 394.741 24.1855 393.03 22.4043L396.3 19.6621ZM410.503 21.9824C412.097 25.7559 413.234 28.6152 413.913 30.5605L409.378 32.2832C408.534 29.6582 407.445 26.7754 406.109 23.6348L410.503 21.9824ZM381.851 22.123L386.245 23.459C384.909 27.5605 383.773 30.8066 382.835 33.1973L378.546 31.2988C379.624 28.8848 380.726 25.8262 381.851 22.123ZM402.136 25.7441C403.917 26.5645 405.558 27.2793 407.058 27.8887C406.191 31.498 405.148 33.6133 403.929 34.2344C402.722 34.8555 401.409 35.166 399.991 35.166H392.538C388.952 35.166 387.159 33.4082 387.159 29.8926V22.1934H391.87V28.6973C391.87 30.1504 392.585 30.877 394.015 30.877H398.515C399.359 30.877 400.015 30.7539 400.484 30.5078C400.952 30.25 401.263 29.9102 401.415 29.4883C401.568 29.0547 401.808 27.8066 402.136 25.7441ZM427.737 30.6133C427.737 32.0547 427.245 33.2441 426.26 34.1816C425.287 35.1191 424.186 35.5879 422.955 35.5879C421.561 35.5879 420.371 35.0957 419.387 34.1113C418.414 33.127 417.928 31.9609 417.928 30.6133C417.928 29.2422 418.414 28.0879 419.387 27.1504C420.36 26.2012 421.52 25.7266 422.868 25.7266C424.168 25.7266 425.305 26.1953 426.278 27.1328C427.25 28.0586 427.737 29.2188 427.737 30.6133ZM422.885 32.3359C423.342 32.3359 423.735 32.1719 424.063 31.8438C424.391 31.5273 424.555 31.1406 424.555 30.6836C424.555 30.1445 424.379 29.7227 424.028 29.418C423.676 29.1133 423.266 28.9609 422.797 28.9609C422.317 28.9609 421.924 29.1367 421.62 29.4883C421.315 29.8281 421.162 30.2383 421.162 30.7188C421.162 31.1289 421.315 31.498 421.62 31.8262C421.924 32.166 422.346 32.3359 422.885 32.3359ZM454.744 12.8066H469.369V11.1543H456.853V8.13086H469.369V6.47852H455.623V3.45508H469.369V0.888672H474.396V3.45508H488.177V6.47852H474.396V8.13086H486.947V11.1543H474.396V12.8066H489.056V15.8301H454.744V12.8066ZM463.041 35.5176H458.33V17.377H485.365V31.0527C485.365 32.4121 485.019 33.4551 484.328 34.1816C483.648 34.9199 482.629 35.3359 481.269 35.4297C479.91 35.5352 477.619 35.5879 474.396 35.5879C474.091 34.3223 473.74 33.0801 473.341 31.8613C475.802 32.002 477.666 32.0723 478.931 32.0723C480.08 32.0723 480.654 31.5098 480.654 30.3848V29.9629H463.041V35.5176ZM480.654 20.6816H463.041V22.4043H480.654V20.6816ZM463.041 27.0449H480.654V25.3223H463.041V27.0449ZM521.97 22.2988C523.985 22.9785 525.696 23.5176 527.102 23.916C526.493 29.377 525.702 32.6172 524.729 33.6367C523.768 34.6562 522.239 35.166 520.141 35.166H516.731C512.958 35.166 511.071 33.2441 511.071 29.4004V19.4863H506.905C506.893 27.8066 503.255 33.2441 495.989 35.7988C494.653 34.1113 493.376 32.7168 492.157 31.6152C498.462 29.2246 501.538 25.1816 501.386 19.4863H492.755V14.5996H506.887V1.06445H512.231V14.5996H526.645V19.4863H516.274V28.3105C516.274 29.8105 516.907 30.5605 518.173 30.5605H519.016C519.977 30.5605 520.628 30.1504 520.968 29.3301C521.307 28.5098 521.641 26.166 521.97 22.2988ZM520.739 2.99805L525.204 6.23242C522.18 9.74805 519.802 12.3145 518.067 13.9316L514.2 10.627C516.169 8.72852 518.348 6.18555 520.739 2.99805ZM498.204 2.99805C501.016 5.83398 503.29 8.27148 505.024 10.3105L500.77 13.5449C498.427 10.5918 496.27 8.07227 494.302 5.98633L498.204 2.99805ZM543.035 13.1582C545.52 9.29102 547.512 5.18945 549.012 0.853516L553.512 1.97852C552.996 3.36133 552.469 4.68555 551.93 5.95117H563.461C563.438 15.7949 563.285 23.4355 563.004 28.873C562.863 32.5762 561.141 34.5332 557.836 34.7441C554.953 34.8848 552.48 34.9434 550.418 34.9199C550.113 33.2324 549.691 31.5684 549.152 29.9277C551.824 30.1152 554.051 30.1855 555.832 30.1387C557.449 30.1855 558.27 29.2949 558.293 27.4668C558.551 22.5215 558.703 16.8848 558.75 10.5566H549.75C548.836 12.3848 547.863 14.0957 546.832 15.6895C545.473 14.7051 544.207 13.8613 543.035 13.1582ZM541.77 5.91602L545.32 8.20117C543.445 10.9199 541.617 13.3105 539.836 15.373C539.742 17.9512 539.578 20.2246 539.344 22.1934L540.961 21.2793C542.789 23.7402 544.547 26.2363 546.234 28.7676L542.086 31.334C540.961 29.2246 539.883 27.291 538.852 25.5332C538.031 29.1895 536.285 32.6113 533.613 35.7988C532.277 34.3457 531.105 33.1152 530.098 32.1074C533.613 28.3574 535.324 22.6973 535.23 15.127C535.301 11.2129 535.359 6.51367 535.406 1.0293H540.047C540 4.12305 539.965 6.80664 539.941 9.08008C540.645 7.95508 541.254 6.90039 541.77 5.91602ZM549.258 14.9512C551.367 17.0605 553.605 19.5801 555.973 22.5098L551.965 25.6035C549.973 22.791 547.863 20.1777 545.637 17.7637L549.258 14.9512ZM533.543 7.56836C534.012 11.1309 534.398 14.6582 534.703 18.1504L531.293 18.6777C531.012 14.9512 530.637 11.4355 530.168 8.13086L533.543 7.56836ZM582.277 17.5527H600.277V35.6582H596.198V34.0059H586.355V35.6582H582.277V17.5527ZM568.847 6.6543H583.261V5.24805H570.675V2.29492H599.995V5.24805H587.48V6.6543H601.823V12.7715H597.745V9.60742H587.48V16.2168H583.261V9.60742H572.925V12.7715H568.847V6.6543ZM567.652 29.2246C569.855 27.1855 571.695 24.9473 573.171 22.5098H568.741V19.1348H573.347V16.7793H577.495V19.1348H581.503V22.5098H577.495V24.2676L578.058 23.7051C579.581 25.041 580.941 26.2832 582.136 27.4316L579.288 30.2441C578.82 29.6582 578.222 28.9668 577.495 28.1699V35.6582H573.347V28.2754C572.222 30.0098 570.945 31.7559 569.515 33.5137C569.21 32.7168 568.589 31.2871 567.652 29.2246ZM571.8 13.8613H581.644V15.8652H571.8V13.8613ZM589.097 13.8613H598.941V15.8652H589.097V13.8613ZM586.355 30.9824H596.198V29.2949H586.355V30.9824ZM586.355 26.623H596.198V24.9355H586.355V26.623ZM596.198 20.5762H586.355V22.2637H596.198V20.5762ZM573.98 10.7324H581.644V12.7363H573.98V10.7324ZM589.097 10.7324H596.691V12.7363H589.097V10.7324ZM606.858 7.5332H620.955V5.81055H608.405V2.29492H637.76V5.81055H625.209V7.5332H639.307V15.4082H635.229V11.0488H625.209V19.4512H620.955V11.0488H610.936V15.4082H606.858V7.5332ZM612.061 12.4902H619.373V14.8105H612.061V12.4902ZM626.862 12.4902H634.139V14.8105H626.862V12.4902ZM610.233 16.252H619.373V18.5723H610.233V16.252ZM626.862 16.252H635.932V18.5723H626.862V16.252ZM608.897 20.5059H637.549V35.5527H633.049V34.6035H608.756V31.1934H633.049V29.1895H609.881V25.9199H633.049V23.916H608.897V20.5059ZM654.572 26.3242L651.724 35.8516H647.576L649.597 26.3242H654.572ZM691.809 31.5449H701.583V29.3652H694.446V28.2754L691.247 31.0879C690.52 29.6816 689.712 28.2051 688.821 26.6582C687.907 30.1738 686.524 33.1855 684.673 35.6934C683.337 34.2871 682.153 33.0801 681.122 32.0723C684.427 27.6426 686.044 22.0176 685.973 15.1973C686.02 11.2832 686.055 6.57227 686.079 1.06445H690.403C690.356 4.62695 690.309 7.63867 690.263 10.0996C691.106 8.97461 691.821 7.9668 692.407 7.07617L693.919 8.69336V4.01758H700.212C700.493 3.0332 700.763 2.00195 701.02 0.923828L705.872 1.69727C705.567 2.49414 705.274 3.26758 704.993 4.01758H713.817V18.7129H693.919V11.6113C693.567 11.9395 692.337 13.123 690.227 15.1621C690.204 17.3887 690.063 19.498 689.805 21.4902C691.305 23.3652 692.852 25.416 694.446 27.6426V25.9902H701.583V23.7402H693.251V20.2246H714.415V23.7402H706.153V25.9902H713.606V29.3652H706.153V31.5449H716.208V35.0605H691.809V31.5449ZM684.18 7.35742C684.72 10.0762 685.247 13.6504 685.763 18.0801L682.634 18.6074C682.446 16.0762 681.989 12.4902 681.263 7.84961L684.18 7.35742ZM709.247 7.81445H698.489V9.88867H709.247V7.81445ZM709.247 14.9512V12.877H698.489V14.9512H709.247ZM729.609 31.5449H739.383V29.3652H732.246V28.2754L729.047 31.0879C728.32 29.6816 727.512 28.2051 726.621 26.6582C725.707 30.1738 724.324 33.1855 722.473 35.6934C721.137 34.2871 719.953 33.0801 718.922 32.0723C722.227 27.6426 723.844 22.0176 723.773 15.1973C723.82 11.2832 723.855 6.57227 723.879 1.06445H728.203C728.156 4.62695 728.109 7.63867 728.062 10.0996C728.906 8.97461 729.621 7.9668 730.207 7.07617L731.719 8.69336V4.01758H738.012C738.293 3.0332 738.562 2.00195 738.82 0.923828L743.672 1.69727C743.367 2.49414 743.074 3.26758 742.793 4.01758H751.617V18.7129H731.719V11.6113C731.367 11.9395 730.137 13.123 728.027 15.1621C728.004 17.3887 727.863 19.498 727.605 21.4902C729.105 23.3652 730.652 25.416 732.246 27.6426V25.9902H739.383V23.7402H731.051V20.2246H752.215V23.7402H743.953V25.9902H751.406V29.3652H743.953V31.5449H754.008V35.0605H729.609V31.5449ZM721.98 7.35742C722.52 10.0762 723.047 13.6504 723.562 18.0801L720.434 18.6074C720.246 16.0762 719.789 12.4902 719.062 7.84961L721.98 7.35742ZM747.047 7.81445H736.289V9.88867H747.047V7.81445ZM747.047 14.9512V12.877H736.289V14.9512H747.047ZM763.226 1.06445L767.902 2.22461C767.116 5.00195 766.202 7.66797 765.159 10.2227V35.623H760.659V19.2754C759.898 20.5527 759.101 21.7949 758.269 23.002C757.987 21.5723 757.507 19.4746 756.827 16.709C759.804 11.623 761.937 6.4082 763.226 1.06445ZM784.179 1.97852H788.89C788.843 9.23242 788.667 14.248 788.362 17.0254C788.058 19.791 787.601 22.0527 786.991 23.8105L791.808 29.5762L789.277 35.1309C788.07 33.2676 786.511 31.0059 784.601 28.3457C782.761 30.8652 779.866 33.373 775.917 35.8691C774.98 34.6973 773.843 33.4199 772.507 32.0371C775.343 30.3379 777.523 28.7441 779.046 27.2559C780.57 25.7676 781.677 24.1855 782.368 22.5098C783.06 20.8223 783.505 18.8008 783.704 16.4453C783.915 14.0781 784.073 9.25586 784.179 1.97852ZM773.491 2.43555V22.1582C774.616 21.3848 776.573 19.9551 779.362 17.8691C779.503 19.9551 779.644 21.6777 779.784 23.0371C775.472 26.0605 772.167 28.5449 769.87 30.4902L767.023 26.623C768.241 25.4746 768.851 23.9395 768.851 22.0176V2.43555H773.491ZM778.448 3.49023C779.55 5.7168 780.874 8.78711 782.421 12.7012L778.132 14.3535C777.288 11.7285 776.058 8.61133 774.441 5.00195L778.448 3.49023ZM807.002 6.9707L809.287 8.79883C811.116 6.43164 812.651 3.80664 813.893 0.923828L818.604 1.69727C818.159 2.68164 817.69 3.63086 817.198 4.54492H827.182V8.69336C825.823 10.7324 824.194 12.8652 822.295 15.0918C821.077 14.2246 819.764 13.4277 818.358 12.7012C819.881 11.0137 820.971 9.68945 821.627 8.72852H814.807C813.424 10.8848 811.948 12.7949 810.377 14.459C809.604 13.8496 808.713 13.2168 807.705 12.5605C806.44 13.873 805.291 15.0332 804.26 16.041C804.213 18.2441 804.037 20.3301 803.733 22.2988C805.116 23.9863 806.604 25.7559 808.198 27.6074V15.7949C810.987 15.1855 813.483 14.4355 815.686 13.5449L817.83 17.5879C816.073 18.1035 814.362 18.5488 812.698 18.9238V22.7559H817.198V26.7285H812.698V30.2441H823.807V26.7285H819.166V22.7559H823.807V19.2754H818.991V15.3027H828.307V35.9043H823.807V34.2168H812.698V35.8691H808.198V29.541L805.596 31.8613C804.588 30.2676 803.58 28.709 802.573 27.1855C801.541 30.4199 800.018 33.2441 798.002 35.6582C797.041 34.5566 795.928 33.4082 794.662 32.2129C797.639 28.6504 799.338 23.9395 799.76 18.0801L796.526 18.748C795.846 14.7637 795.213 11.2832 794.627 8.30664L798.108 7.5332C798.577 10.2285 799.127 13.7207 799.76 18.0098C799.877 16.5332 799.912 14.9746 799.866 13.334V1.06445H804.225V10.7676C805.397 9.29102 806.323 8.02539 807.002 6.9707ZM842.834 30.9824C841.873 29.3652 840.959 27.9121 840.091 26.623C839.271 29.8105 837.783 32.8105 835.627 35.623C834.455 34.334 833.353 33.1855 832.322 32.1777C835.228 28.0059 836.752 23.3184 836.892 18.1152L834.185 18.6777C833.763 15.8652 833.154 12.2793 832.357 7.91992L835.24 7.25195C835.873 10.6973 836.435 13.9199 836.927 16.9199C836.951 16.3809 836.998 11.0957 837.068 1.06445H841.462C841.392 4.83789 841.334 8.14258 841.287 10.9785C842.318 9.66602 843.349 8.30664 844.38 6.90039L846.314 8.76367V3.34961H865.298V22.0176H846.314V11.2949C844.72 12.748 843.021 14.3301 841.216 16.041C841.169 18.1035 841.076 19.873 840.935 21.3496C843.185 23.9043 844.919 25.9434 846.138 27.4668L842.834 30.9824ZM860.517 17.5527V7.81445H851.095V17.5527H860.517ZM850.005 22.8613L854.224 25.2168C851.435 30.1621 849.15 33.7832 847.369 36.0801C846.267 35.2129 844.873 34.2285 843.185 33.127C845.552 30.3145 847.826 26.8926 850.005 22.8613ZM861.044 22.9668C863.365 26.3418 865.544 29.752 867.584 33.1973L863.048 35.9043C861.173 32.1777 859.169 28.5801 857.037 25.1113L861.044 22.9668ZM881.337 30.6133C881.337 32.0547 880.845 33.2441 879.86 34.1816C878.888 35.1191 877.786 35.5879 876.555 35.5879C875.161 35.5879 873.971 35.0957 872.987 34.1113C872.014 33.127 871.528 31.9609 871.528 30.6133C871.528 29.2422 872.014 28.0879 872.987 27.1504C873.96 26.2012 875.12 25.7266 876.468 25.7266C877.768 25.7266 878.905 26.1953 879.878 27.1328C880.85 28.0586 881.337 29.2188 881.337 30.6133ZM876.485 32.3359C876.942 32.3359 877.335 32.1719 877.663 31.8438C877.991 31.5273 878.155 31.1406 878.155 30.6836C878.155 30.1445 877.979 29.7227 877.628 29.418C877.276 29.1133 876.866 28.9609 876.397 28.9609C875.917 28.9609 875.524 29.1367 875.22 29.4883C874.915 29.8281 874.763 30.2383 874.763 30.7188C874.763 31.1289 874.915 31.498 875.22 31.8262C875.524 32.166 875.946 32.3359 876.485 32.3359ZM31.6594 67.2871L35.8781 70.873C32.6555 74.0605 29.3273 77.2188 25.8937 80.3477V88.627C25.8937 89.8926 26.3976 90.5254 27.4055 90.5254H28.5305C29.3625 90.5254 29.8898 90.127 30.1125 89.3301C30.3351 88.5215 30.6047 85.9902 30.9211 81.7363C32.5851 82.416 34.2258 83.0137 35.843 83.5293C35.3976 88.8262 34.6359 92.0547 33.5578 93.2148C32.4797 94.375 30.8391 94.9551 28.6359 94.9551H26.1047C22.7062 94.9551 21.007 93.1738 21.007 89.6113V61.2402H25.8937V73.8965C27.8156 71.8691 29.7375 69.666 31.6594 67.2871ZM3.49921 67.3926H8.35077V88.2227L11.1633 87.7129V61.8379H16.05V71.4355H19.9523V76.3574H16.05V86.7988L20.0578 85.9902C19.9172 87.6777 19.8351 89.4004 19.8117 91.1582C14.3273 92.166 8.32733 93.3496 1.81171 94.709L0.862488 89.4355L3.49921 89.0312V67.3926ZM38.9437 80.9277H43.0219V64.1934H50.7738L52.4789 60.959C54.6117 61.1699 56.4515 61.3809 57.9984 61.5918L56.3109 64.1934H68.1937V78.4668C69.1547 77.7168 70.0687 76.9434 70.9359 76.1465L73.889 79.4512C72.1312 80.9043 70.2328 82.293 68.1937 83.6172V89.6816C68.1937 93.502 66.4359 95.4355 62.9203 95.4824H56.9789C56.6508 93.4668 56.3812 91.9551 56.1703 90.9473C57.8109 91.0645 59.5687 91.123 61.4437 91.123C62.7562 91.123 63.4125 90.4668 63.4125 89.1543V86.4473C57.0961 89.8574 49.6547 92.752 41.0883 95.1309C40.1273 93.0684 39.2719 91.498 38.5219 90.4199C45.3187 89.1309 51.3305 87.373 56.557 85.1465H38.9437V80.9277ZM63.4125 68.3418H47.8031V70.4512H63.4125V68.3418ZM47.8031 75.6543H63.4125V73.5449H47.8031V75.6543ZM47.8031 80.9277H63.4125V78.748H47.8031V80.9277ZM76.4625 67.3223H80.5758C80.8805 65.3184 81.1734 63.1855 81.4547 60.9238L86.3414 61.3809L85.357 67.3223H92.9859C92.9859 75.9238 91.7437 82.1113 89.2594 85.8848C91.0523 87.3027 92.7398 88.6738 94.3219 89.998L90.8062 93.8301C89.3297 92.4121 87.8765 91.0469 86.4469 89.7344C84.5953 91.8555 82.3219 93.8887 79.6265 95.834C78.7359 94.5918 77.6812 93.3027 76.4625 91.9668C78.9937 90.2559 81.1148 88.4219 82.8258 86.4648C81.0328 84.8711 79.275 83.3535 77.5523 81.9121C78.3726 79.1582 79.1402 75.7598 79.8551 71.7168H76.4625V67.3223ZM82.5797 80.7168L85.4098 82.8789C87.0152 79.9258 87.9234 76.2051 88.1344 71.7168H84.5484C83.939 74.834 83.2828 77.834 82.5797 80.7168ZM94.7437 94.8496V64.4746H109.615V94.8496H104.904V92.3887H99.4547V94.8496H94.7437ZM104.904 69.1504H99.4547V87.7129H104.904V69.1504ZM128.817 61.416L128.22 62.1895C131.055 64.6973 133.739 67.3457 136.27 70.1348L132.544 73.4746V75.9707H118.692V73.8965C117.825 74.6699 116.923 75.4199 115.985 76.1465C115.212 73.9668 114.544 72.2441 113.981 70.9785C117.473 68.4004 120.544 65.2129 123.192 61.416H128.817ZM143.126 61.5918H147.696V89.5762C147.696 93.4434 146.114 95.4121 142.95 95.4824C141.591 95.5293 139.985 95.5527 138.134 95.5527C137.876 93.9121 137.524 92.2363 137.079 90.5254C138.438 90.5957 139.716 90.6309 140.911 90.6309C142.387 90.6309 143.126 89.8457 143.126 88.2754V61.5918ZM130.645 77.6934L135.005 79.0645C133.973 81.9941 132.813 85.1816 131.524 88.627C133.024 88.4629 134.524 88.2871 136.024 88.0996C135.954 89.4121 135.872 90.9707 135.778 92.7754C129.005 93.4785 122.36 94.1934 115.845 94.9199L115.106 90.1387C119.208 89.834 123.227 89.4941 127.165 89.1191C128.407 85.6504 129.567 81.8418 130.645 77.6934ZM140.665 86.7285H136.376V64.8613H140.665V86.7285ZM119.29 78.4316C120.438 81.1973 121.598 84.2559 122.77 87.6074L118.903 89.1895C117.778 85.6035 116.641 82.5098 115.493 79.9082L119.29 78.4316ZM126.075 77.0254C126.755 80.0488 127.329 83.1777 127.798 86.4121L123.93 87.1504C123.485 83.752 123.028 80.6348 122.559 77.7988L126.075 77.0254ZM125.723 65.8105C124.341 67.8965 122.688 69.9238 120.766 71.8926H131.173C129.391 69.7832 127.575 67.7559 125.723 65.8105ZM183.773 63.2793V66.6895C182.531 68.541 181.031 70.1816 179.273 71.6113C181.383 72.2207 184.031 72.7363 187.219 73.1582C186.82 74.4473 186.445 75.7832 186.094 77.166C181.594 76.416 177.996 75.4316 175.301 74.2129C172.324 75.7832 168.68 77.0957 164.367 78.1504C163.805 76.6504 163.219 75.3496 162.609 74.248C165.891 73.6387 168.785 72.8066 171.293 71.752C170.473 71.1191 169.687 70.4043 168.937 69.6074C168.047 70.5918 167.109 71.5762 166.125 72.5605C165.141 71.4824 164.18 70.5215 163.242 69.6777C163.359 69.5605 163.477 69.4434 163.594 69.3262H157.195C156.867 70.1934 156.516 71.0254 156.141 71.8223H162.328V75.7949H159.691V79.416H163.523V83.3887H159.691V87.8184C160.746 86.998 161.848 86.1191 162.996 85.1816C163.09 87.0098 163.277 88.7207 163.559 90.3145C160.441 92.5176 158.203 94.334 156.844 95.7637L154.594 92.2832C155.203 91.6738 155.508 90.5957 155.508 89.0488V83.3887H151.992V79.416H155.508V75.7949H154.066C153.762 76.2871 153.457 76.7676 153.152 77.2363C152.707 75.1738 152.262 73.2754 151.816 71.541C153.152 68.6113 154.312 65.084 155.297 60.959L159.516 61.6621C159.211 62.9512 158.883 64.1934 158.531 65.3887H163.875V69.0801C166.336 66.6426 168.504 63.9473 170.379 60.9941L175.055 61.9082C174.75 62.377 174.434 62.834 174.105 63.2793H183.773ZM164.016 87.6777H172.77V85.9551H165.844V83.002H172.77V81.2793H165.492V78.0449H172.77V75.9355H177.34V78.0449H184.301V81.2793H177.34V83.002H183.914V85.9551H177.34V87.6777H185.742V91.4043H177.34V95.6934H172.77V91.4043H164.016V87.6777ZM175.09 69.8184C176.449 68.9512 177.656 67.9902 178.711 66.9355H171.68C172.664 68.0605 173.801 69.0215 175.09 69.8184ZM200.972 86.3242L198.124 95.8516H193.976L195.997 86.3242H200.972ZM229.034 89.4355H255.084V85.9902H230.616V81.6309H255.084V78.1855H229.491V73.8262H242.428V60.8887H247.631V73.8262H260.287V95.8691H255.084V93.7949H229.034V89.4355ZM233.78 62.3301L240.67 69.5371L236.838 72.9121C234.612 70.1465 232.467 67.6855 230.405 65.5293L233.78 62.3301ZM256.35 62.3652L260.287 65.6699L253.045 72.9824L249.424 69.748C252.049 67.2168 254.358 64.7559 256.35 62.3652ZM279.982 61.3457C281.388 63.3379 283.392 66.5723 285.994 71.0488L281.318 73.791C279.466 70.1816 277.545 66.8418 275.552 63.7715L279.982 61.3457ZM291.021 61.9082H296.224L295.82 74.1426C295.691 77.5762 295.193 80.5703 294.326 83.125L300.478 90.9473L296.962 95.4473C295.193 92.7168 293.47 90.2266 291.795 87.9766C289.275 91.2812 285.806 93.9121 281.388 95.8691C280.521 94.7441 279.314 93.4082 277.767 91.8613C280.849 90.2793 283.252 88.7793 284.974 87.3613C286.697 85.9316 287.98 84.3965 288.824 82.7559C289.679 81.1152 290.218 79.1699 290.441 76.9199C290.664 74.6699 290.857 69.666 291.021 61.9082ZM272.599 62.2598V86.166C274.568 84.9707 277.345 83.0605 280.931 80.4355C281.353 82.8965 281.716 84.7129 282.021 85.8848C274.345 91.1348 270.185 94.1582 269.541 94.9551L266.201 90.9121C267.115 89.8574 267.572 88.5801 267.572 87.0801V62.2598H272.599ZM338.313 90.666C337.423 92.2129 336.579 93.7012 335.782 95.1309C332.29 94.0059 329.489 91.9902 327.38 89.084C327.262 90.7012 327.227 92.1074 327.274 93.3027C322.259 94.3105 319.305 95.1543 318.415 95.834L315.989 92.1426C316.903 91.3223 317.348 90.1035 317.325 88.4863V62.4707H335.993V80.7871H334.692L337.61 84.4082L332.055 87.6074C333.602 89.0137 335.688 90.0332 338.313 90.666ZM306.848 69.748C307.575 71.1074 308.723 73.2637 310.294 76.2168C310.927 73.6621 311.395 70.9316 311.7 68.0254H303.649V63.5605H315.919V68.2012C315.286 73.3574 314.337 77.7871 313.071 81.4902C314.477 84.1152 315.802 86.5762 317.044 88.873C315.848 89.7637 314.653 90.6426 313.458 91.5098C312.731 90.127 311.887 88.4863 310.927 86.5879C309.356 89.6582 307.481 92.4355 305.302 94.9199C304.669 93.3965 303.942 91.9199 303.122 90.4902C305.231 88.0293 307.012 85.123 308.466 81.7715L303.368 71.752L306.848 69.748ZM323.794 80.7871H321.825V90.0332C323.208 89.7285 324.989 89.3066 327.169 88.7676C325.692 86.5879 324.567 83.9277 323.794 80.7871ZM331.598 76.6387V73.5449H321.825V76.6387H331.598ZM331.598 66.6543H321.825V69.748H331.598V66.6543ZM329.665 84.4785C331.845 82.9551 333.415 81.7246 334.376 80.7871H328.118C328.54 82.1699 329.055 83.4004 329.665 84.4785ZM350.73 75.6543C352.629 77.9277 353.578 80.623 353.578 83.7402C353.578 85.709 353.121 87.1504 352.207 88.0645C351.27 89.002 349.652 89.4707 347.355 89.4707C347.215 88.0176 346.934 86.3887 346.512 84.584C347.051 84.7012 347.496 84.7598 347.848 84.7598C348.809 84.7598 349.289 84.0332 349.289 82.5801C349.289 80.2832 348.398 78.1035 346.617 76.041C347.578 72.9941 348.41 69.8887 349.113 66.7246H346.477V95.7285H342.363V62.6816H353.754V66.0215C352.723 69.584 351.715 72.7949 350.73 75.6543ZM371.086 76.0762H356.953V74.3535C356.18 75.0098 355.371 75.6543 354.527 76.2871C353.824 74.8105 353.016 73.3223 352.102 71.8223C356.016 69.127 359.391 65.5762 362.227 61.1699H367.359L366.727 62.3301C369.516 66.4551 372.68 69.4785 376.219 71.4004C375.445 72.666 374.59 74.1309 373.652 75.7949C372.762 75.2324 371.906 74.623 371.086 73.9668V76.0762ZM352.734 90.3145H366.094C367.547 86.0957 368.672 81.9824 369.469 77.9746L374.145 79.0996C373.02 82.8496 371.824 86.5879 370.559 90.3145H375.234V94.6035H352.734V90.3145ZM358.078 78.4316C358.969 81.3613 359.883 84.6426 360.82 88.2754L356.672 89.4707C355.945 86.0957 355.09 82.7793 354.105 79.5215L358.078 78.4316ZM364.617 77.2715C365.484 80.6934 366.234 83.8457 366.867 86.7285L362.754 87.6777C362.168 84.4902 361.465 81.3145 360.645 78.1504L364.617 77.2715ZM364.266 66.1973C362.766 68.2363 361.207 70.123 359.59 71.8574H368.766C367.055 70.0996 365.555 68.2129 364.266 66.1973ZM388.425 67.8496H401.222L401.081 61.1348H405.862L405.95 67.8496H409.413C407.948 65.8691 406.847 64.4746 406.109 63.666L409.062 61.3457C410.609 62.9629 411.909 64.4277 412.964 65.7402L410.239 67.8496H413.456V72.4902H406.109C406.261 76.2051 406.478 79.334 406.759 81.877C407.04 84.4082 407.339 86.3418 407.655 87.6777C407.972 89.002 408.189 89.7695 408.306 89.9805C408.423 90.1797 408.581 90.2793 408.78 90.2793C409.191 90.1738 409.554 88.3223 409.87 84.7246C411.464 85.3574 412.835 85.8496 413.984 86.2012C413.491 90.1621 412.835 92.7578 412.015 93.9883C411.195 95.2188 410.093 95.834 408.71 95.834C407.257 95.834 406.068 95.3535 405.142 94.3926C404.228 93.4434 403.46 91.4512 402.839 88.416C402.218 85.3809 401.737 80.0723 401.398 72.4902H388.425V67.8496ZM383.538 61.416C385.132 63.5254 386.62 65.6699 388.003 67.8496L383.89 70.3457C382.648 68.0723 381.265 65.8457 379.741 63.666L383.538 61.416ZM388.952 76.1465H400.519V80.7168H397.073V88.0645L401.292 87.4316C401.198 89.6582 401.175 91.2871 401.222 92.3184C399.722 92.5293 395.749 93.1738 389.304 94.252L388.636 91.2285C386.456 92.834 384.734 94.2637 383.468 95.5176L380.937 92.0723C381.546 91.2988 381.851 90.3145 381.851 89.1191V76.7793H378.862V72.209H386.491V87.0449C387.429 86.3418 388.53 85.5566 389.796 84.6895C389.831 85.3105 390.001 86.7578 390.306 89.0312L392.433 88.7324V80.7168H388.952V76.1465ZM427.737 90.6133C427.737 92.0547 427.245 93.2441 426.26 94.1816C425.287 95.1191 424.186 95.5879 422.955 95.5879C421.561 95.5879 420.371 95.0957 419.387 94.1113C418.414 93.127 417.928 91.9609 417.928 90.6133C417.928 89.2422 418.414 88.0879 419.387 87.1504C420.36 86.2012 421.52 85.7266 422.868 85.7266C424.168 85.7266 425.305 86.1953 426.278 87.1328C427.25 88.0586 427.737 89.2188 427.737 90.6133ZM422.885 92.3359C423.342 92.3359 423.735 92.1719 424.063 91.8438C424.391 91.5273 424.555 91.1406 424.555 90.6836C424.555 90.1445 424.379 89.7227 424.028 89.418C423.676 89.1133 423.266 88.9609 422.797 88.9609C422.317 88.9609 421.924 89.1367 421.62 89.4883C421.315 89.8281 421.162 90.2383 421.162 90.7188C421.162 91.1289 421.315 91.498 421.62 91.8262C421.924 92.166 422.346 92.3359 422.885 92.3359ZM458.33 83.0371H468.455V80.4707H454.744V76.3926H468.455V73.8262H459.384V72.7539C458.693 73.3984 457.99 74.0371 457.275 74.6699C456.408 73.5215 455.435 72.373 454.357 71.2246C458.435 67.9434 461.576 64.5098 463.779 60.9238L469.228 61.2402C468.771 61.9316 468.291 62.623 467.787 63.3145H481.181V66.4785L478.105 69.8184H485.33V76.3926H489.267V80.4707H485.33V89.3652H480.619V87.0449H473.377V89.752C473.377 91.4395 473.007 92.7285 472.269 93.6191C471.543 94.5215 470.318 95.0371 468.595 95.166C466.873 95.3066 464.611 95.377 461.81 95.377C461.271 93.0801 460.849 91.5449 460.545 90.7715C462.255 90.8184 463.732 90.8418 464.974 90.8418C465.982 90.8418 466.679 90.8066 467.066 90.7363C467.464 90.6543 467.793 90.4375 468.05 90.0859C468.32 89.7344 468.455 89.2598 468.455 88.6621V87.0449H458.33V83.0371ZM475.205 67.252H464.675C463.925 68.1074 463.146 68.9629 462.337 69.8184H472.955L475.205 67.252ZM480.619 73.8262H473.377V76.3926H480.619V73.8262ZM473.377 83.0371H480.619V80.4707H473.377V83.0371ZM512.126 69.9941L515.184 67.8145C516.427 69.2676 517.634 70.8145 518.805 72.4551L515.923 74.3887C516.837 74.4121 517.669 74.4238 518.419 74.4238C519.497 74.4238 520.13 73.873 520.317 72.7715C520.434 72.1621 520.493 70.4395 520.493 67.6035H510.966V78.9941H526.47C526.329 84.5254 526.177 88.1348 526.012 89.8223C525.825 92.4941 524.618 94.1582 522.391 94.8145C521.454 95.0957 518.583 95.2363 513.778 95.2363C513.591 93.8066 513.286 92.2598 512.864 90.5957C515.278 90.7363 517.188 90.8066 518.595 90.8066C520.235 90.7832 521.137 90.1035 521.302 88.7676C521.419 87.6426 521.512 85.6152 521.583 82.6855H506.817V64.0176H511.88C512.161 63.0332 512.384 61.9902 512.548 60.8887L517.645 61.5215C517.387 62.3652 517.118 63.1973 516.837 64.0176H524.606C524.606 69.1035 524.512 72.291 524.325 73.5801C523.973 75.9238 522.848 77.3184 520.95 77.7637C520.012 77.998 517.821 78.0684 514.376 77.9746C514.188 76.6152 513.966 75.3613 513.708 74.2129C514.153 74.2598 514.587 74.2949 515.009 74.3184C513.977 72.6543 513.016 71.2129 512.126 69.9941ZM493.598 63.7012H504.145V91.0527H499.962V88.3105H497.782V91.7207H493.598V63.7012ZM505.341 84.7246H519.895V88.7324H505.341V84.7246ZM499.962 67.3926H497.782V84.6191H499.962V67.3926ZM533.297 95.6934V70.6621H543.527L544.354 67.1113H530.344V62.4355H564.656V67.1113H549.592C549.264 68.3652 548.93 69.5488 548.59 70.6621H561.703V95.6582H556.641V93.584H538.359V95.6934H533.297ZM556.641 75.2324H538.359V79.9082H556.641V75.2324ZM538.359 89.0137H556.641V84.3027H538.359V89.0137ZM567.827 75.3379H582.523V67.375L571.097 67.7441C570.862 66.5254 570.487 64.9551 569.972 63.0332C581.245 62.8926 590.972 62.5527 599.152 62.0137L600.698 66.6543L588.077 67.1816V75.3379H602.773V80.2598H588.077V95.4824H582.523V80.2598H567.827V75.3379ZM607.28 95.4824V62.5762H638.955V95.4473H633.928V93.9707H612.307V95.4824H607.28ZM633.928 89.6465V66.9004H612.307V89.6465H633.928ZM615.19 70.7324H631.01V85.7793H615.19V70.7324ZM626.123 81.5957V74.916H620.077V81.5957H626.123ZM654.572 86.3242L651.724 95.8516H647.576L649.597 86.3242H654.572ZM693.778 75.5137V66.373H701.899C701.923 64.8262 701.934 63.1387 701.934 61.3105H706.54C706.516 63.1152 706.481 64.8027 706.434 66.373H715.083V75.5137H710.829V70.6973H706.223C706.059 73.2754 705.837 75.4434 705.555 77.2012H708.227V89.2246C708.227 90.209 708.778 90.7012 709.88 90.7012H710.829C711.509 90.7012 711.907 90.2793 712.024 89.4355C712.259 87.6777 712.446 85.8379 712.587 83.916C713.852 84.5723 715.165 85.1816 716.524 85.7441C716.243 88.1348 715.95 90.1504 715.645 91.791C715.2 93.9941 713.817 95.0957 711.497 95.0957H707.911C705.145 95.0957 703.763 93.6543 703.763 90.7715V83.5996C701.934 87.9121 698.782 92.0254 694.305 95.9395C693.251 94.4629 692.114 93.1387 690.895 91.9668C695.489 88.0059 698.606 83.7285 700.247 79.1348C700.95 77.2832 701.43 74.4707 701.688 70.6973H698.032V75.5137H693.778ZM681.087 81.209C682.751 78.4199 684.087 75.3496 685.095 71.998H681.438V67.709H685.552V61.2402H689.911V67.709H692.794V71.998H689.911V75.4785L690.93 74.459C692.477 76.0293 694.188 77.916 696.063 80.1191L692.97 83.1777C691.915 81.5605 690.895 80.1309 689.911 78.8887V95.7285H685.552V80.4355C684.614 83.0137 683.501 85.416 682.212 87.6426C681.954 86.0254 681.579 83.8809 681.087 81.209ZM745.922 73.791L750 76.5684C747.328 80.2598 744.229 83.4941 740.701 86.2715C741.545 87.3379 742.582 88.3281 743.812 89.2422C745.043 90.1445 745.986 90.5957 746.643 90.5957C747.123 90.5957 747.451 90.4023 747.627 90.0156C747.814 89.6289 748.348 87.5605 749.227 83.8105C750.961 84.5605 752.555 85.2051 754.008 85.7441C753.199 89.4355 752.543 91.8027 752.039 92.8457C751.547 93.8887 750.932 94.6855 750.193 95.2363C749.455 95.7988 748.617 96.0801 747.68 96.0801C743.344 96.0801 739.482 93.8828 736.096 89.4883C731.936 92.0547 727.277 94.1113 722.121 95.6582C720.926 93.5488 720 92.002 719.344 91.0176C724.664 89.4824 729.369 87.4961 733.459 85.0586C732.088 82.1523 731.004 78.7012 730.207 74.7051L720.293 75.9004L719.59 71.2598L729.434 70.082C729.059 67.3867 728.766 64.4395 728.555 61.2402H733.863C734.039 63.9824 734.303 66.7188 734.654 69.4492L742.09 68.5527C739.828 66.6309 737.953 65.1426 736.465 64.0879L738.996 60.9941C741.246 62.4707 743.379 63.9473 745.395 65.4238L742.758 68.4648L752.848 67.252L753.41 71.8926L735.41 74.0723C736.043 77.084 736.904 79.7207 737.994 81.9824C741.076 79.5801 743.719 76.8496 745.922 73.791ZM764.07 60.6426L768.148 63.666C765.71 66.9238 762.874 70.1699 759.64 73.4043C759.03 71.4355 758.386 69.666 757.706 68.0957C760.12 65.8691 762.241 63.3848 764.07 60.6426ZM764.948 70.8379L767.902 73.5801V71.9629H777.112V69.1152H769.624V64.7207H777.112V61.0645H782.175V64.7207H790.191V69.1152H782.175V71.9629H791.667V76.3574H767.902V74.8809C767.116 76.0645 766.308 77.2012 765.476 78.291V95.623H760.941V83.5645C760.062 84.4785 759.159 85.3457 758.234 86.166C757.788 84.2676 757.32 82.4629 756.827 80.752C759.359 78.3848 762.066 75.0801 764.948 70.8379ZM782.527 77.1309H787.237V79.627H791.597V83.916H787.237V90.3848C787.237 91.791 786.98 92.8574 786.464 93.584C785.948 94.3105 785.234 94.8086 784.32 95.0781C783.417 95.3477 780.851 95.4824 776.62 95.4824C776.269 93.748 775.905 92.2363 775.53 90.9473C777.112 91.041 778.583 91.0879 779.943 91.0879C780.704 91.0879 781.232 91.0469 781.525 90.9648C781.818 90.8711 782.058 90.6602 782.245 90.332C782.433 90.0039 782.527 89.5645 782.527 89.0137V83.916H774.335C775.378 84.959 776.632 86.2715 778.097 87.8535L774.23 90.8418C772.847 88.9434 771.511 87.3262 770.222 85.9902L772.876 83.916H767.902V79.627H782.527V77.1309ZM810.975 96.2207C809.827 95.0254 808.549 93.8184 807.143 92.5996C808.936 90.4902 810.096 88.4277 810.623 86.4121C811.162 84.3848 811.42 81.1387 811.397 76.6738V62.7168H827.85V88.8027C827.85 89.9395 827.727 90.9297 827.481 91.7734C827.246 92.6172 826.83 93.3613 826.233 94.0059C825.647 94.6504 824.416 95.0254 822.541 95.1309C820.678 95.248 818.955 95.3066 817.373 95.3066C816.952 93.3145 816.565 91.7441 816.213 90.5957L820.608 90.666C822.389 90.666 823.28 89.5527 823.28 87.3262V85.1816H815.475C814.76 89.6699 813.26 93.3496 810.975 96.2207ZM823.28 67.2871H815.967V71.7168H823.28V67.2871ZM815.914 80.6816H823.28V76.2168H815.967C815.991 77.7168 815.973 79.2051 815.914 80.6816ZM796.35 63.3496H808.655V88.6621H800.92V91.0527H796.35V63.3496ZM804.225 67.5684H800.92V73.8965H804.225V67.5684ZM804.225 84.4434V78.1152H800.92V84.4434H804.225ZM836.119 95.377V63.0332H863.892V95.377H858.478V92.916H841.533V95.377H836.119ZM858.478 68.0254H841.533V75.4082H858.478V68.0254ZM841.533 87.9238H858.478V80.2598H841.533V87.9238ZM881.337 90.6133C881.337 92.0547 880.845 93.2441 879.86 94.1816C878.888 95.1191 877.786 95.5879 876.555 95.5879C875.161 95.5879 873.971 95.0957 872.987 94.1113C872.014 93.127 871.528 91.9609 871.528 90.6133C871.528 89.2422 872.014 88.0879 872.987 87.1504C873.96 86.2012 875.12 85.7266 876.468 85.7266C877.768 85.7266 878.905 86.1953 879.878 87.1328C880.85 88.0586 881.337 89.2188 881.337 90.6133ZM876.485 92.3359C876.942 92.3359 877.335 92.1719 877.663 91.8438C877.991 91.5273 878.155 91.1406 878.155 90.6836C878.155 90.1445 877.979 89.7227 877.628 89.418C877.276 89.1133 876.866 88.9609 876.397 88.9609C875.917 88.9609 875.524 89.1367 875.22 89.4883C874.915 89.8281 874.763 90.2383 874.763 90.7188C874.763 91.1289 874.915 91.498 875.22 91.8262C875.524 92.166 875.946 92.3359 876.485 92.3359Z" fill="white"/>
</svg>
